<svg xmlns="http://www.w3.org/2000/svg" viewBox="0 0 32 32" fill="none">
  <rect width="32" height="32" rx="8" fill="#1e3a5f"/>
  <path d="M16 6c-3.2 0-5.5 2.4-5.5 5.2 0 1.1.3 2.1.9 3C9.8 15.5 8 17.8 8 20.5 8 24.3 11.2 27 16 27s8-2.7 8-6.5c0-2.7-1.8-5-3.4-6.3.6-.9.9-1.9.9-3C21.5 8.4 19.2 6 16 6Z" fill="#fb923c"/>
  <path d="M13 12.5c0 .8-.6 1.5-1.3 1.5M19 12.5c0 .8.6 1.5 1.3 1.5" stroke="#fff" stroke-width="1.2" stroke-linecap="round"/>
  <path d="M12 18.5c1.2 1.5 2.6 2.2 4 2.2s2.8-.7 4-2.2" stroke="#fff" stroke-width="1.2" stroke-linecap="round"/>
  <circle cx="11" cy="10" r="1" fill="#fdba74"/>
  <circle cx="21" cy="10" r="1" fill="#fdba74"/>
  <path d="M10 15c.8-1.2 2-2 3-2M22 15c-.8-1.2-2-2-3-2" stroke="#ea580c" stroke-width=".8" stroke-linecap="round"/>
</svg>
